<?xml version="1.0" encoding="utf-8"?>
<!-- Generator: Adobe Illustrator 23.0.3, SVG Export Plug-In . SVG Version: 6.00 Build 0)  -->
<svg version="1.1" id="Layer_1" xmlns="http://www.w3.org/2000/svg" xmlns:xlink="http://www.w3.org/1999/xlink" x="0px" y="0px"
	 viewBox="0 0 50 43.4" style="enable-background:new 0 0 50 43.4;" xml:space="preserve">
<style type="text/css">
	.st0{fill:#4D4D4D;}
	.st1{fill:#FFFFFF;}
	.st2{fill:#F01267;}
</style>
<g id="Group_190">
	<path id="Path_229_1_" class="st0" d="M16.66,15.16c0-3.93,3.74-7.13,8.36-7.13s8.35,3.2,8.35,7.13s-3.74,7.12-8.35,7.12
		S16.66,19.1,16.66,15.16z"/>
	<path id="Path_230_1_" class="st0" d="M18.28,30.5h13.47c-0.02,0.23-0.06,0.46-0.11,0.68c-0.73,3.66-4.29,6.04-7.96,5.31
		c-2.68-0.54-4.77-2.63-5.31-5.31C18.32,30.96,18.29,30.73,18.28,30.5z"/>
	<path id="Path_231_1_" class="st1" d="M33.36,15.16c0,3.93-3.74,7.12-8.35,7.12s-8.36-3.18-8.36-7.12s3.74-7.13,8.36-7.13
		S33.36,11.24,33.36,15.16z"/>
	<ellipse id="Ellipse_49" class="st0" cx="25.01" cy="14.96" rx="2.78" ry="2.37"/>
	<g id="Group_189">
		<path id="Path_232_1_" class="st0" d="M25.02,0.85c-13.51,0-24.45,9.33-24.45,20.85s10.94,20.85,24.45,20.85
			s24.44-9.33,24.44-20.85S38.51,0.85,25.02,0.85z M25,36.62c-3.22,0-6-2.28-6.63-5.44c-0.05-0.22-0.08-0.45-0.1-0.68h13.47
			c-0.02,0.23-0.06,0.46-0.11,0.68C31.01,34.34,28.23,36.62,25,36.62L25,36.62z M25.02,22.29c-4.62,0-8.36-3.18-8.36-7.12
			s3.74-7.13,8.36-7.13s8.35,3.2,8.35,7.13S29.62,22.29,25.02,22.29z"/>
		<path id="Path_233_1_" class="st1" d="M31.75,30.5c-0.02,0.23-0.06,0.46-0.11,0.68H18.38c-0.05-0.22-0.08-0.45-0.1-0.68H31.75z"/>
		<path id="Path_234_1_" class="st2" d="M31.64,31.18c-0.73,3.66-4.29,6.04-7.96,5.31c-2.68-0.54-4.77-2.63-5.31-5.31H31.64z"/>
	</g>
</g>
</svg>
