<?xml version="1.0" encoding="utf-8"?>
<!-- Generator: Adobe Illustrator 23.0.3, SVG Export Plug-In . SVG Version: 6.00 Build 0)  -->
<svg version="1.1" id="Layer_1" xmlns="http://www.w3.org/2000/svg" xmlns:xlink="http://www.w3.org/1999/xlink" x="0px" y="0px"
	 viewBox="0 0 50 43.4" style="enable-background:new 0 0 50 43.4;" xml:space="preserve">
<style type="text/css">
	.st0{fill:#F01267;}
	.st1{fill:#B3B3B3;}
	.st2{fill:#FFFFFF;}
	.st3{fill:#4D4D4D;}
</style>
<g id="Group_181" transform="translate(1370.644 39.949)">
	<path id="Path_222" class="st0" d="M-1345.64-39.09c-13.21,0-23.94,9.27-23.94,20.7s10.72,20.7,23.94,20.7
		c13.22,0,23.92-9.27,23.92-20.7S-1332.42-39.09-1345.64-39.09z M-1353.69-26.11c1.23,1.87,3.16,3.18,5.36,3.63
		c1.78,0.41,3.62,0.41,5.4,0c2.19-0.45,4.12-1.76,5.35-3.63c0.09,0.4,0.13,0.81,0.13,1.21c0,3.91-3.67,7.07-8.17,7.07
		s-8.19-3.16-8.19-7.07C-1353.82-25.3-1353.78-25.71-1353.69-26.11z M-1345.65-4.28c-4.79,0-8.84-2.74-8.84-5.96
		c0-0.3,0.24-0.54,0.54-0.54c0.3,0,0.54,0.24,0.54,0.54c0,2.6,3.63,4.87,7.76,4.87c4.58,0,7.76-2.01,7.76-4.87
		c0-0.3,0.24-0.54,0.54-0.54s0.54,0.24,0.54,0.54C-1336.8-6.73-1340.45-4.28-1345.65-4.28L-1345.65-4.28z"/>
	<path id="Path_223" class="st1" d="M-1337.46-24.86c0,3.86-3.67,6.98-8.17,6.98c-4.51,0-8.19-3.12-8.19-6.98
		c0-0.4,0.04-0.81,0.13-1.2c1.24,1.86,3.17,3.15,5.36,3.58c1.78,0.41,3.62,0.41,5.4,0c2.19-0.44,4.11-1.72,5.35-3.58
		C-1337.5-25.67-1337.46-25.27-1337.46-24.86z"/>
	<path id="Path_224" class="st1" d="M-1336.8-10.17c0,3.46-3.64,5.88-8.85,5.88c-4.79,0-8.84-2.7-8.84-5.88
		c0-0.3,0.24-0.54,0.54-0.54c0.3,0,0.54,0.24,0.54,0.54c0,2.56,3.63,4.8,7.76,4.8c4.58,0,7.76-1.97,7.76-4.8
		c0-0.3,0.24-0.54,0.54-0.54S-1336.8-10.47-1336.8-10.17L-1336.8-10.17z"/>
	<path id="Path_225" class="st2" d="M-1337.46-24.86c0,3.86-3.67,6.98-8.17,6.98c-4.51,0-8.19-3.12-8.19-6.98
		c0-0.4,0.04-0.81,0.13-1.2c1.24,1.86,3.17,3.15,5.36,3.58c1.78,0.41,3.62,0.41,5.4,0c2.19-0.44,4.11-1.72,5.35-3.58
		C-1337.5-25.67-1337.46-25.27-1337.46-24.86z"/>
	<path id="Path_226_1_" class="st3" d="M-1342.91-22.16c-0.24,1.5-1.65,2.53-3.15,2.3c-1.18-0.19-2.11-1.11-2.3-2.3
		c0-0.1,0.01-0.2,0.03-0.3c1.78,0.41,3.62,0.41,5.4,0C-1342.92-22.36-1342.91-22.26-1342.91-22.16z"/>
	<g id="Group_180" transform="translate(11.28 21.216)">
		<path id="Path_227_1_" class="st2" d="M-1348.08-31.39c0,3.46-3.64,5.88-8.85,5.88c-4.79,0-8.84-2.7-8.84-5.88
			c0-0.3,0.24-0.54,0.54-0.54c0.3,0,0.54,0.24,0.54,0.54c0,2.56,3.63,4.8,7.76,4.8c4.58,0,7.76-1.97,7.76-4.8
			c0-0.3,0.24-0.54,0.54-0.54S-1348.08-31.69-1348.08-31.39L-1348.08-31.39z"/>
	</g>
</g>
</svg>
