<?xml version="1.0" encoding="utf-8"?>
<!-- Generator: Adobe Illustrator 23.0.3, SVG Export Plug-In . SVG Version: 6.00 Build 0)  -->
<svg version="1.1" id="Layer_1" xmlns="http://www.w3.org/2000/svg" xmlns:xlink="http://www.w3.org/1999/xlink" x="0px" y="0px"
	 viewBox="0 0 30 30" style="enable-background:new 0 0 30 30;" xml:space="preserve">
<style type="text/css">
	.st0{fill:#F11267;}
	.st1{fill:#FFFFFF;}
</style>
<g id="Group_33" transform="translate(1401.786 692.729) rotate(180)">
	<g transform="matrix(-1, 0, 0, -1, 65.79, 68.73)">
		<path id="Path_1-2" class="st0" d="M-1321-594.11c-8.23,0-14.89-6.67-14.89-14.89c0-8.23,6.67-14.89,14.89-14.89
			c8.23,0,14.89,6.67,14.89,14.89C-1306.1-600.77-1312.77-594.11-1321-594.11C-1321-594.11-1321-594.11-1321-594.11z"/>
	</g>
	<g id="Group_1-2-2" transform="translate(11.5 8.799)">
		<path id="Path_2-2" class="st1" d="M1378.68,668.95c0-0.02-0.01-0.05-0.01-0.07l-0.02-0.06c-0.01-0.02-0.02-0.04-0.03-0.05
			l-6.17-5.84c-0.06-0.07-0.15-0.1-0.24-0.09c-0.18,0.01-0.33,0.16-0.32,0.34c0.01,0.09,0.04,0.17,0.1,0.23l5.87,5.54l-5.86,5.54
			c-0.13,0.13-0.14,0.33-0.02,0.47c0.07,0.06,0.15,0.1,0.24,0.1c0.08,0,0.17-0.03,0.23-0.09l6.11-5.77l0.08-0.11l0.02-0.07
			l-0.15-0.04l0.15,0.03L1378.68,668.95z"/>
	</g>
</g>
</svg>
