<?xml version="1.0" encoding="utf-8"?>
<!-- Generator: Adobe Illustrator 23.0.3, SVG Export Plug-In . SVG Version: 6.00 Build 0)  -->
<svg version="1.1" id="Layer_1" xmlns="http://www.w3.org/2000/svg" xmlns:xlink="http://www.w3.org/1999/xlink" x="0px" y="0px"
	 viewBox="0 0 45 45" style="enable-background:new 0 0 45 45;" xml:space="preserve">
<style type="text/css">
	.st0{fill:#F11267;}
	.st1{fill:#FFFFFF;}
</style>
<g id="Group_32" transform="translate(1446.464 655)">
	<g transform="matrix(1, 0, 0, 1, -110.46, -31)">
		<ellipse id="Ellipse_10-2" class="st0" cx="-1313.5" cy="-601.5" rx="22.34" ry="22.34"/>
	</g>
	<g id="Group_1-2" transform="translate(17.729 14.062)">
		<path id="Path_2" class="st1" d="M-1437.08-646.53c0-0.03-0.01-0.07-0.02-0.1l-0.02-0.08c-0.01-0.03-0.03-0.05-0.04-0.07
			l-8.38-7.94c-0.08-0.09-0.2-0.13-0.32-0.13c-0.25,0.01-0.44,0.22-0.44,0.47c0.01,0.12,0.06,0.23,0.14,0.31l7.97,7.53l-7.97,7.53
			c-0.18,0.17-0.19,0.45-0.02,0.64c0.09,0.09,0.21,0.14,0.33,0.14c0.12,0,0.23-0.05,0.31-0.13l8.3-7.84l0.11-0.15l0.03-0.1
			l-0.21-0.05l0.21,0.04L-1437.08-646.53z"/>
	</g>
</g>
</svg>
