<?xml version="1.0" encoding="utf-8"?>
<!-- Generator: Adobe Illustrator 23.0.3, SVG Export Plug-In . SVG Version: 6.00 Build 0)  -->
<svg version="1.1" id="Layer_1" xmlns="http://www.w3.org/2000/svg" xmlns:xlink="http://www.w3.org/1999/xlink" x="0px" y="0px"
	 viewBox="0 0 247.93 300" style="enable-background:new 0 0 247.93 300;" xml:space="preserve">
<style type="text/css">
	.st0{fill:#4D4D4D;}
	.st1{fill:#B3B3B3;}
	.st2{fill:#C11959;}
</style>
<g>
	<path id="Path_3" class="st0" d="M11.63,182.19c2.97-0.16,5.87,0.93,8.01,2.99c4.16,4.27,4.08,11.1-0.19,15.26
		c-2.15,2.09-5.07,3.2-8.06,3.05c-5.88,0.26-10.86-4.29-11.12-10.17c-0.14-3.05,1.04-6.01,3.23-8.13
		C5.68,183.13,8.62,182.04,11.63,182.19z M11.63,213.29c2.97-0.16,5.87,0.93,8.01,2.99c4.16,4.27,4.08,11.1-0.19,15.26
		c-2.15,2.09-5.07,3.2-8.06,3.05c-5.88,0.26-10.86-4.29-11.12-10.17c-0.14-3.05,1.04-6.01,3.23-8.13
		C5.68,214.23,8.62,213.14,11.63,213.29L11.63,213.29z"/>
	<path id="Path_4" class="st1" d="M38.05,150.97l20.21-1.56v13.75l14.48-0.72l-0.24,16.99l-14.11,0.84l0.84,27.27
		c0,1.83,0.55,3.62,1.56,5.14c1.5,1.84,3.87,2.75,6.22,2.39c3.15-0.21,6.21-1.11,8.97-2.63l3.71,14.71
		c-6.14,4.44-13.59,6.72-21.17,6.46c-5.03,0.15-9.92-1.74-13.52-5.26c-2.62-2.56-4.31-5.93-4.78-9.57c-0.28-1.38-0.48-2.78-0.6-4.18
		c-0.08-0.68-0.12-1.35-0.12-2.03c0-0.48-0.12-3.82-0.12-4.3l-0.48-26.91l-10.88,0.36l-0.6-16.63l11.24-0.36L38.05,150.97z"/>
	<path id="Path_5" class="st1" d="M97.14,139.25c6.47-0.64,12.23,4.08,12.87,10.55c0.02,0.23,0.04,0.46,0.05,0.68
		c0,7.18-5.86,11.24-12.68,11.6c-7.3,0.36-13.04-4.06-13.04-11.36c0.31-6.65,5.95-11.79,12.6-11.49L97.14,139.25z M86.62,170.83
		l21.53-1.68l-0.72,63.04l-18.89,2.15L86.62,170.83z"/>
	<path id="Path_6" class="st1" d="M163.53,190.81c-4.68-5.26-9.45-7.77-14.6-7.54c-4.09,0.05-7.89,2.11-10.16,5.5
		c-2.5,4.21-3.51,9.14-2.87,13.99c0.36,8.14,4.91,14.83,12.92,14.95c6.82,0.12,10.76-2.5,15.55-7.78l8.49,11.13
		c-5.59,8.3-15.12,13.06-25.11,12.56c-7.4,0.28-14.64-2.19-20.33-6.94c-6.82-5.87-10.17-14.12-10.17-25
		c-0.31-8.18,2.13-16.22,6.94-22.85c6.03-7.9,15.54-12.37,25.48-11.96c9.07-0.48,17.67,4.07,22.37,11.84L163.53,190.81z"/>
	<path id="Path_7" class="st0" d="M213.39,219.81l15.67,1.43l0.6-68.78l-16.27,1.32V136.2l33.85-0.24l-2.03,101.79l-31.83,0.12
		L213.39,219.81z"/>
	<path id="Path_8" class="st1" d="M69.72,15l20.21-1.56V27.2l14.48-0.72l-0.24,16.99l-14.11,0.84l0.84,27.27
		c0.01,1.83,0.55,3.62,1.56,5.14c1.5,1.84,3.87,2.76,6.22,2.39c3.15-0.21,6.21-1.11,8.97-2.63l3.71,14.71
		c-6.15,4.44-13.59,6.72-21.17,6.46c-5.03,0.15-9.91-1.75-13.51-5.26c-2.62-2.56-4.31-5.93-4.79-9.57c-0.28-1.38-0.48-2.78-0.6-4.18
		c-0.08-0.68-0.12-1.36-0.12-2.04c0-0.48-0.12-3.82-0.12-4.31l-0.48-26.91l-10.88,0.36l-0.6-16.63l11.24-0.36L69.72,15z"/>
	<path id="Path_9" class="st1" d="M171.75,41.32c5.31,7.37,7.65,16.46,6.58,25.48c-0.6,3.35-0.84,9.33,1.44,11.86
		c2.31,2.05,5.28,3.2,8.37,3.23l-2.39,14.83c-2.21,0.68-4.51,1-6.82,0.95c-2.72,0.12-5.43-0.41-7.89-1.56
		c-2.59-1.29-4.53-3.58-5.38-6.34c-4.99,5.47-12.23,8.34-19.62,7.78c-8.79,0.44-17.26-3.4-22.73-10.3c-4.77-6.29-7.29-14-7.18-21.89
		c-0.35-9.75,3.38-19.2,10.3-26.08c6.14-5.63,14.29-8.56,22.61-8.13C157.8,30.73,166.23,34.51,171.75,41.32z M134.91,64.53
		c-0.12,9.09,4.43,16.99,12.68,17.1c8.49,0.12,12.8-6.1,13.28-15.07c0.35-4.57-0.65-9.14-2.87-13.16c-1.93-3.58-5.75-5.72-9.81-5.5
		C139.57,47.9,134.9,55.42,134.91,64.53L134.91,64.53z"/>
	<path id="Path_10" class="st1" d="M238.61,54.84c-4.68-5.26-9.45-7.77-14.59-7.53c-4.09,0.05-7.89,2.1-10.17,5.5
		c-2.5,4.21-3.51,9.14-2.87,13.99c0.36,8.14,4.91,14.83,12.92,14.95c6.82,0.12,10.76-2.5,15.55-7.78l8.49,11.13
		c-5.59,8.3-15.12,13.07-25.12,12.56c-7.4,0.28-14.65-2.19-20.34-6.93c-6.82-5.87-10.17-14.12-10.17-25
		c-0.31-8.18,2.13-16.22,6.94-22.85c6.03-7.9,15.54-12.37,25.48-11.96c9.07-0.48,17.67,4.07,22.37,11.84L238.61,54.84z"/>
	<path id="Path_11" class="st0" d="M34.13,18.06l-15.67-1.44l-0.6,68.78l16.27-1.32v17.59l-33.85,0.24L2.31,0.12L34.14,0
		L34.13,18.06z"/>
	<g id="Group_4" transform="translate(1.747 277.135)">
		<path id="Path_12" class="st2" d="M0.24,19.52L1,18.26c2.09,1.93,4.85,2.97,7.69,2.93c4.66,0,6.72-2.03,6.72-4.56
			c0-6.98-14.54-2.79-14.54-11.38c0-3.3,2.53-6.19,8.25-6.19c2.5-0.02,4.95,0.71,7.02,2.09l-0.62,1.36
			c-1.89-1.27-4.11-1.95-6.39-1.96c-4.52,0-6.55,2.09-6.55,4.66c0,6.98,14.54,2.86,14.54,11.31c0,3.3-2.63,6.16-8.38,6.16
			C5.6,22.79,2.55,21.66,0.24,19.52z"/>
		<path id="Path_13" class="st2" d="M51.01,0.75h-8.38v-1.53H61.1v1.53h-8.37v21.77h-1.7L51.01,0.75z"/>
		<path id="Path_14" class="st2" d="M88.64,12.64V-0.78h1.69v13.36c0,5.83,2.81,8.55,7.66,8.55c4.85,0,7.62-2.72,7.62-8.55V-0.77
			h1.7v13.42c0,6.65-3.57,10.04-9.36,10.04C92.16,22.69,88.64,19.29,88.64,12.64z"/>
		<path id="Path_15" class="st2" d="M139.26-0.78h9.22c6.43-0.41,11.98,4.48,12.39,10.91c0.41,6.43-4.48,11.98-10.91,12.39
			c-0.49,0.03-0.98,0.03-1.48,0h-9.22V-0.78z M148.35,21c5.59,0.29,10.37-4.01,10.66-9.6c0.29-5.49-3.85-10.2-9.32-10.64
			c-0.44-0.03-0.89-0.03-1.33,0h-7.4V21H148.35z"/>
		<path id="Path_16" class="st2" d="M190.78-0.78h1.7v23.3h-1.7V-0.78z"/>
		<path id="Path_17" class="st2" d="M222.37,10.87c-0.17-6.69,5.12-12.25,11.81-12.41c6.69-0.17,12.25,5.12,12.41,11.81
			c0.17,6.69-5.12,12.25-11.81,12.41c-0.1,0-0.2,0-0.3,0c-6.44,0.25-11.86-4.76-12.11-11.2c0,0,0,0,0,0
			C222.37,11.28,222.37,11.07,222.37,10.87z M244.87,10.87c0.08-5.74-4.51-10.46-10.25-10.54c-5.74-0.08-10.46,4.51-10.54,10.25
			c-0.08,5.74,4.51,10.46,10.25,10.54c0,0,0,0,0,0c0.06,0,0.11,0,0.17,0c5.55,0.18,10.2-4.18,10.38-9.74
			C244.87,11.21,244.87,11.04,244.87,10.87z"/>
	</g>
</g>
</svg>
