<?xml version="1.0" encoding="utf-8"?>
<!-- Generator: Adobe Illustrator 23.0.3, SVG Export Plug-In . SVG Version: 6.00 Build 0)  -->
<svg version="1.1" id="Layer_1" xmlns="http://www.w3.org/2000/svg" xmlns:xlink="http://www.w3.org/1999/xlink" x="0px" y="0px"
	 viewBox="0 0 43.07 42.71" style="enable-background:new 0 0 43.07 42.71;" xml:space="preserve">
<style type="text/css">
	.st0{fill:#B3B3B3;}
	.st1{fill:#F11267;}
</style>
<g id="Group_40" transform="translate(-2423.709 -1972.394)">
	<path id="Path_3" class="st0" d="M2464.96,2007.04l-39.39-1.22l-1.87,7.83l42.9,1.42L2464.96,2007.04z"/>
	<path id="Path_4" class="st1" d="M2425.72,1988.62l1.69,7.1l35.7-1.11l1.49-7.28L2425.72,1988.62z"/>
	<path id="Path_5" class="st0" d="M2461.38,1995.92l-30.65,1l-3.56,6.45l35.98-0.94L2461.38,1995.92z"/>
	<path id="Path_6" class="st0" d="M2465.29,1984.39l1.33-8.23l-29.68,2.84l-0.88-6.61l-9.76,3.51l3.65,7.24L2465.29,1984.39z"/>
	<path id="Path_7" class="st1" d="M2462.72,2005.82l-1.15-1.81l-24.09,0.48l0.59,0.89L2462.72,2005.82z"/>
	<path id="Path_9" class="st1" d="M2428.84,1985.34l-2.29,2.36l31.46-1.18l-1.87-0.75L2428.84,1985.34z"/>
</g>
</svg>
